# xmcd
#
# Track frame offsets:
#	150
#	18043
#	36250
#
# Disc length: 702 seconds
#
# Revision: 0
# Processed by: cddbd v1.5.1PL0 Copyright (c) Steve Scherf et al.
# Submitted via: audiograbber 1.83.01
#
DISCID=1702bc03
DTITLE=Smokie - Bang Bang (The Race Is On)
DYEAR=1994
DGENRE=Rock
TTITLE0=Bang Bang (The Race Is On)
TTITLE1=Bang Bang (You Shot My Heart)
TTITLE2=One More Dance
EXTD=Maxi-CD
EXTT0=
EXTT1=
EXTT2=
PLAYORDER=
